<?xml version="1.0" encoding="UTF-8"?><svg xmlns="http://www.w3.org/2000/svg" xmlns:xlink="http://www.w3.org/1999/xlink"><symbol viewBox="0 0 82 82" id="arm"><title>arm</title><g fill="none" fill-rule="evenodd"><path fill="#000" d="M0 23h82v28H0z"/><path fill="#EFC2A3" d="M0 25h82v24H0z"/></g></symbol><symbol viewBox="0 0 82 82" id="clipboard"><title>clipboard</title><g fill="none" fill-rule="evenodd"><rect stroke="#000" stroke-width="2" fill="#F4F4F4" x="5" y="13" width="72" height="66" rx="12"/><rect stroke="#000" stroke-width="2" fill="#FFF" x="13" y="21" width="56" height="50" rx="4"/><rect fill="#D6D6D6" x="21" y="52" width="40" height="4" rx="2"/><rect fill="#D6D6D6" x="21" y="59" width="30" height="4" rx="2"/><circle stroke="#CD4C5C" fill="#FF6175" cx="27" cy="41" r="6"/><circle stroke="#35859E" fill="#3F9BB8" cx="41" cy="41" r="6"/><circle stroke="#D19D08" fill="#FFCD72" cx="55" cy="41" r="6"/><path d="M31.847 10.172h-6.939c-2.164 0-3.908 1.606-3.908 3.586v11.656C21 27.394 22.75 29 24.908 29h32.184C59.256 29 61 27.395 61 25.414V13.758c0-1.98-1.75-3.586-3.908-3.586h-6.939C49.452 6.107 45.621 3 41 3c-4.62 0-8.452 3.107-9.153 7.172z" stroke="#000" stroke-width="2" fill="#EDECEC"/><path d="M41 12a2 2 0 1 0 0-4 2 2 0 0 0 0 4z" fill="#000"/></g></symbol><symbol viewBox="0 0 32 32" id="cog"><g fill-rule="evenodd"><path d="M16 27C9.925 27 5 22.075 5 16S9.925 5 16 5s11 4.925 11 11-4.925 11-11 11zm0-3a8 8 0 1 0 0-16 8 8 0 0 0 0 16z"/><circle cx="16" cy="16" r="5"/><rect width="4" height="4" x="14" y="3" rx="1"/><rect width="4" height="4" x="14" y="25" rx="1"/><path d="M23.064 6.107a1.004 1.004 0 0 1 1.428 0l1.4 1.401c.395.394.401 1.027 0 1.428l-1.4 1.4c-.394.395-1.027.4-1.428 0l-1.4-1.4a1.004 1.004 0 0 1 0-1.428l1.4-1.4zM7.508 21.663a1.004 1.004 0 0 1 1.428 0l1.4 1.401c.395.395.4 1.028 0 1.428l-1.4 1.4c-.395.395-1.028.401-1.428 0l-1.4-1.4a1.004 1.004 0 0 1 0-1.428l1.4-1.4zM4.01 18C3.452 18 3 17.557 3 16.99v-1.98c0-.558.443-1.01 1.01-1.01h1.98c.558 0 1.01.443 1.01 1.01v1.98C7 17.549 6.557 18 5.99 18H4.01zm22 0C25.452 18 25 17.557 25 16.99v-1.98c0-.558.443-1.01 1.01-1.01h1.98c.558 0 1.01.443 1.01 1.01v1.98c0 .558-.443 1.01-1.01 1.01h-1.98zM6.107 8.936a1.004 1.004 0 0 1 0-1.428l1.401-1.4a1.004 1.004 0 0 1 1.428 0l1.4 1.4c.395.394.4 1.027 0 1.428l-1.4 1.4c-.395.395-1.028.4-1.428 0l-1.4-1.4zm15.556 15.556a1.004 1.004 0 0 1 0-1.428l1.401-1.4a1.004 1.004 0 0 1 1.428 0l1.4 1.4c.395.395.401 1.028 0 1.428l-1.4 1.4c-.394.395-1.027.401-1.428 0l-1.4-1.4z"/></g></symbol><symbol viewBox="0 0 32 32" id="colours"><path d="M14.202 8.666a8 8 0 1 0 0 14.667A9.973 9.973 0 0 1 11 16a9.973 9.973 0 0 1 3.202-7.334z"/><path d="M21 24a8 8 0 1 1 0-16 8 8 0 0 1 0 16zm0-2a6 6 0 1 0 0-12 6 6 0 0 0 0 12z"/></symbol><symbol viewBox="0 0 32 32" id="github"><title>github</title><path d="M15.999 2C8.269 2 2 8.427 2 16.355c0 6.342 4.011 11.721 9.574 13.62.7.132.956-.312.956-.692 0-.34-.012-1.244-.019-2.441-3.894.867-4.716-1.925-4.716-1.925-.637-1.658-1.554-2.1-1.554-2.1-1.272-.89.096-.872.096-.872 1.405.101 2.144 1.48 2.144 1.48 1.249 2.193 3.277 1.56 4.075 1.192.127-.927.489-1.56.888-1.919-3.108-.362-6.377-1.594-6.377-7.094 0-1.567.546-2.849 1.442-3.852-.145-.363-.625-1.823.137-3.799 0 0 1.175-.386 3.85 1.472A13.1 13.1 0 0 1 16 8.941c1.19.006 2.387.165 3.505.484 2.673-1.858 3.846-1.472 3.846-1.472.764 1.976.284 3.436.14 3.8.898 1.002 1.44 2.284 1.44 3.851 0 5.515-3.275 6.728-6.393 7.083.502.443.95 1.32.95 2.659 0 1.918-.017 3.466-.017 3.937 0 .384.253.83.962.69C25.993 28.072 30 22.696 30 16.356 30 8.427 23.731 2 15.999 2" fill="#FFF" fill-rule="evenodd"/></symbol><symbol viewBox="0 0 82 82" id="hand-point-left"><title>hand-point-left</title><g transform="translate(3 20)" fill="none" fill-rule="evenodd"><path d="M80 4H6.007A6 6 0 0 0 0 10c0 3.307 2.69 6 6.007 6H21v22h36.998c5.226 0 9.673-3.338 11.32-8H80V4z" stroke="#000" stroke-width="2" fill="#EFC2A3"/><g transform="translate(43)"><path d="M15.496 12H12v3.496A6.006 6.006 0 0 1 6 21.5c-3.314 0-6-2.681-6-6.004V6.504a5.99 5.99 0 0 1 1.994-4.467A5.988 5.988 0 0 1 6.504 0h8.992A6.006 6.006 0 0 1 21.5 6" stroke="#000" stroke-width="2" stroke-linecap="round" fill="#EFC2A3"/><rect fill="#D9B093" x="3" y="2" width="9" height="8" rx="4"/><path d="M6.5 4v4M8.5 4v4" stroke="#EFC2A3" stroke-linecap="round"/><path d="M3 16a3 3 0 0 0 6 0H3z" fill="#FFF"/></g><rect stroke="#000" stroke-width="2" fill="#EFC2A3" x="14" y="28" width="25" height="12" rx="6"/><path d="M34 31a3 3 0 0 1 0 6v-6z" fill="#FFF"/><g transform="translate(16 30)"><rect fill="#D9B093" transform="matrix(-1 0 0 1 9 0)" width="9" height="8" rx="4"/><path d="M5.5 2v4M3.5 2v4" stroke="#EFC2A3" stroke-linecap="round"/></g><rect stroke="#000" stroke-width="2" fill="#EFC2A3" x="14" y="16" width="25" height="12" rx="6"/><path d="M34 19a3 3 0 0 1 0 6v-6z" fill="#FFF"/><g transform="translate(16 18)"><rect fill="#D9B093" transform="matrix(-1 0 0 1 9 0)" width="9" height="8" rx="4"/><path d="M5.5 2v4M3.5 2v4" stroke="#EFC2A3" stroke-linecap="round"/></g><path d="M17 7v6M59 16v15" stroke="#D9B093" stroke-width="2" stroke-linecap="round"/></g></symbol><symbol viewBox="0 0 82 82" id="hand-point-right"><title>hand-point-right</title><g fill="none" fill-rule="evenodd"><path d="M-1 24h73.993A6 6 0 0 1 79 30c0 3.307-2.69 6-6.007 6H58v22H21.002c-5.226 0-9.673-3.338-11.32-8H-1V24z" stroke="#000" stroke-width="2" fill="#EFC2A3"/><g transform="matrix(-1 0 0 1 36 20)"><path d="M15.496 12H12v3.496A6.006 6.006 0 0 1 6 21.5c-3.314 0-6-2.681-6-6.004V6.504a5.99 5.99 0 0 1 1.994-4.467A5.988 5.988 0 0 1 6.504 0h8.992A6.006 6.006 0 0 1 21.5 6" stroke="#000" stroke-width="2" stroke-linecap="round" fill="#EFC2A3"/><rect fill="#D9B093" x="3" y="2" width="9" height="8" rx="4"/><path d="M6.5 4v4M8.5 4v4" stroke="#EFC2A3" stroke-linecap="round"/><path d="M3 16a3 3 0 0 0 6 0H3z" fill="#FFF"/></g><rect stroke="#000" stroke-width="2" fill="#EFC2A3" transform="matrix(-1 0 0 1 105 0)" x="40" y="48" width="25" height="12" rx="6"/><path d="M45 51a3 3 0 0 0 0 6v-6z" fill="#FFF"/><g transform="matrix(-1 0 0 1 63 50)"><rect fill="#D9B093" transform="matrix(-1 0 0 1 9 0)" width="9" height="8" rx="4"/><path d="M5.5 2v4M3.5 2v4" stroke="#EFC2A3" stroke-linecap="round"/></g><rect stroke="#000" stroke-width="2" fill="#EFC2A3" transform="matrix(-1 0 0 1 105 0)" x="40" y="36" width="25" height="12" rx="6"/><path d="M45 39a3 3 0 0 0 0 6v-6z" fill="#FFF"/><g transform="matrix(-1 0 0 1 63 38)"><rect fill="#D9B093" transform="matrix(-1 0 0 1 9 0)" width="9" height="8" rx="4"/><path d="M5.5 2v4M3.5 2v4" stroke="#EFC2A3" stroke-linecap="round"/></g><path d="M62 27v6M20 36v15" stroke="#D9B093" stroke-width="2" stroke-linecap="round"/></g></symbol><symbol viewBox="0 0 82 82" id="house"><title>house</title><g fill="none" fill-rule="evenodd"><path d="M8 45v28.007A3.005 3.005 0 0 0 11.007 76h59.986C72.652 76 74 74.66 74 73.007V45L41 10 8 45z" stroke="#000" stroke-width="2" fill="#FFF"/><path d="M8 52.926V45l33-35 33 35v7.922a4.968 4.968 0 0 1-2.579-1.37l-30.409-30.41-30.409 30.41A4.965 4.965 0 0 1 8 52.925z" fill-opacity=".07" fill="#000"/><path d="M41.012 6.072a4.976 4.976 0 0 0-3.532 1.46L3.532 41.48a5.001 5.001 0 0 0 7.071 7.071l30.41-30.409 30.408 30.41a5.001 5.001 0 0 0 7.071-7.071L44.544 7.531a4.978 4.978 0 0 0-3.53-1.461h-.002z" stroke="#000" stroke-width="2" fill="#E3E3E3"/><path stroke="#000" stroke-width="2" fill="#FF6175" d="M45 42h18v34H45z"/><path stroke="#000" stroke-width="2" fill="#FFCD72" d="M49 47h10v10H49z"/><path d="M42.835 70.99c.091-.546.604-.99 1.167-.99h19.996c.553 0 1.077.451 1.167.99l.67 4.02c.091.546-.282.99-.836.99H43.001c-.553 0-.926-.451-.836-.99l.67-4.02z" stroke="#000" stroke-width="2" fill="#B9B6AD"/><rect stroke="#000" stroke-width="2" fill="#B9B6AD" x="18" y="66" width="18" height="4" rx="1"/><path stroke="#000" stroke-width="2" fill="#FFCD72" d="M20 46h14v20H20z"/><circle fill="#000" cx="50" cy="60" r="1"/><path d="M22 54h10" stroke="#000" stroke-width="2" stroke-linecap="square"/><path stroke="#000" fill="#DCDBD7" d="M42 30h8v4h-8zM28 37h8v4h-8zM8 59h6v4H8z"/></g></symbol><symbol viewBox="0 0 82 82" id="jon"><title>jon</title><g fill="none" fill-rule="evenodd"><rect stroke="#000" stroke-width="2" fill="#D9B093" x="57" y="31" width="9" height="9" rx="3"/><rect stroke="#000" stroke-width="2" fill="#D9B093" x="15" y="31" width="9" height="9" rx="3"/><path d="M74.589 79.743c.27-1.22.411-2.47.411-3.743 0-13.255-15.222-24-34-24S7 62.745 7 76c0 1.101.105 2.185.308 3.247 1.49.489 3.08.753 4.733.753h59.756c.954 0 1.887-.088 2.792-.257z" stroke="#000" stroke-width="2" fill="#3F9BB8"/><circle stroke="#000" stroke-width="2" fill="#D9B093" cx="41" cy="56" r="13"/><rect stroke="#000" stroke-width="2" fill="#EFC2A3" x="21" y="9" width="40" height="52" rx="20"/><path d="M58.446 48.543C55.53 55.283 48.816 60 41 60c-7.693 0-14.32-4.573-17.307-11.146C28.397 47.08 34.645 46 41.5 46c6.445 0 12.352.955 16.946 2.543z" fill="#D6AE92"/><path d="M18 11.379c0-2.992 1.483-5.642 3.759-7.279C25.377 4.914 29.553 5.38 34 5.38c4.626 0 8.96-.503 12.676-1.379A9.085 9.085 0 0 1 49.7 7.53a7.2 7.2 0 0 1 4.133-1.294c3.958 0 7.167 3.166 7.167 7.071 0 1.193-.3 2.316-.827 3.302C62.58 19.909 65 25.975 65 30.372c0 0-3.076-.445-4-1.01 0 0-1.909-7.812-3.505-10.684-1.253 1.06-1.881 1.7-3.662 1.7a7.188 7.188 0 0 1-5.737-2.833 9.151 9.151 0 0 1-6.638 2.834h-14.34a9.166 9.166 0 0 1-4.024-.924A19.907 19.907 0 0 0 21 28.372v4.97c-2.803-.413-5-4.268-5-8.963 0-3.723 1.381-6.918 3.351-8.287A8.866 8.866 0 0 1 18 11.379z" stroke="#000" stroke-width="2" stroke-linejoin="round" fill="#FFCD72"/><ellipse fill="#000" cx="35.5" cy="37" rx="1.5" ry="3"/><ellipse fill="#000" cx="46.5" cy="37" rx="1.5" ry="3"/><path d="M36 53s2.62 1 5.108 1C43.598 54 46 53 46 53" stroke="#000" stroke-width="2" stroke-linecap="round"/><path d="M44 42h5M33 42h5" stroke="#D9B093" stroke-width="2" stroke-linecap="round"/></g></symbol><symbol viewBox="0 0 32 32" id="menu"><title>menu</title><g fill="currentColor" fill-rule="evenodd"><rect x="5" y="5" width="22" height="4.783" rx="2.391"/><rect x="5" y="13.609" width="22" height="4.783" rx="2.391"/><rect x="5" y="22.217" width="22" height="4.783" rx="2.391"/></g></symbol><symbol viewBox="0 0 32 32" id="menu-close"><title>menu-close</title><path d="M16.002 12.776L8.907 5.678a2.284 2.284 0 0 0-3.23 3.23l7.096 7.098-7.095 7.097a2.284 2.284 0 1 0 3.23 3.23l7.094-7.097 7.095 7.097a2.284 2.284 0 1 0 3.23-3.23l-7.095-7.097 7.094-7.097a2.284 2.284 0 1 0-3.229-3.23l-7.095 7.097z" fill="currentColor" fill-rule="evenodd"/></symbol><symbol viewBox="0 0 82 82" id="teacup"><title>teacup</title><g fill="none" fill-rule="evenodd"><path d="M16 20.002v26.006C16 55.391 23.608 63 32.992 63h14.016C56.391 63 64 55.392 64 46.008V20.002A5 5 0 0 0 58.998 15H21.002A5 5 0 0 0 16 20.002z" fill="#000"/><path d="M18 20.002A3 3 0 0 1 21.002 17h37.996A3 3 0 0 1 62 20.002v26.006C62 54.288 55.286 61 47.008 61H32.992C24.712 61 18 54.286 18 46.008V20.002z" fill="#F4F4F4"/><path d="M35 17h23.998A3 3 0 0 1 62 20.002v26.006C62 54.288 55.286 61 47.008 61H35h2.008C45.286 61 52 54.287 52 46.008V20.002A3 3 0 0 0 48.998 17H35z" fill="#DBDBDB"/><path d="M7.872 63.795C7.39 62.804 7.897 62 8.998 62h64.004c1.103 0 1.604.811 1.126 1.795l-2.142 4.41c-.481.991-1.77 1.795-2.876 1.795H12.89c-1.107 0-2.398-.811-2.876-1.795l-2.142-4.41zM63 41v4h5a5 5 0 0 0 5-4.992V23H63v4h6v10.997A3.002 3.002 0 0 1 65.997 41H63z" stroke="#000" stroke-width="2" fill="#F4F4F4"/><path stroke="#000" stroke-width="2" fill="#FFCD72" d="M27 26h10v12H27z"/><path d="M32 25V14" stroke="#000" stroke-width="2" stroke-linecap="round"/></g></symbol><symbol viewBox="0 0 32 32" id="twitter"><title>twitter</title><path d="M10.806 27.756c10.566 0 16.345-8.754 16.345-16.345 0-.249-.005-.496-.017-.743A11.686 11.686 0 0 0 30 7.694c-1.03.457-2.137.765-3.299.904a5.764 5.764 0 0 0 2.526-3.177 11.51 11.51 0 0 1-3.648 1.394 5.746 5.746 0 0 0-9.79 5.239A16.309 16.309 0 0 1 3.95 6.052 5.723 5.723 0 0 0 3.17 8.94a5.74 5.74 0 0 0 2.556 4.782 5.7 5.7 0 0 1-2.602-.718v.073a5.747 5.747 0 0 0 4.608 5.632 5.761 5.761 0 0 1-2.594.098 5.75 5.75 0 0 0 5.366 3.99 11.527 11.527 0 0 1-7.135 2.46c-.463 0-.92-.027-1.37-.08a16.264 16.264 0 0 0 8.806 2.58" fill="#FFF" fill-rule="evenodd"/></symbol></svg>